<svg xmlns="http://www.w3.org/2000/svg" viewBox="0 0 173.89 178.05"><title>资源 5771x</title><g id="图层_2" data-name="图层 2"><g id="图层_12" data-name="图层 12"><path d="M65.56,127.16c1.75-8.33,3.2-15.42,4.74-22.5.51-2.36.77-4.61-.82-6.69-17-22.3-9.4-43.83,3.12-64.32C85.71,12.21,108.22,6.48,131,2.33A139.64,139.64,0,0,1,166.84.4c5.84.45,8.7,1.24,6.06,8.91C168.35,22.51,166,36.46,162.31,50c-4,14.79-9.49,29-20.75,40C127.87,103.41,124,104.22,105,106.22c-5.56.58-17.32,3.41-18-2-1-8,5.9-21.19,8.27-28.86C79,92.22,79,117.62,76.14,140.33a235.57,235.57,0,0,0-1.91,30.61c0,3.79-.83,7.11-5.7,7.11S63,174.65,63,170.87c0-5-.86-10.2.37-14.87,3.07-11.66-3.63-20.3-7.76-29.84-1.07-2.44-1.81-3.31-5-2.55-17.85,4.16-30.09-1.27-38.77-17.19C7.75,99,4.57,91.09.85,83.48-.36,81-.56,79.31,2.16,77.66,19.78,67,53.7,77.8,61.43,96.75c2.36,5.79,3.72,11.81,1,17.9C60.54,119,61.84,122.54,65.56,127.16Z"/></g></g></svg>