<svg xmlns="http://www.w3.org/2000/svg" viewBox="0 0 188.3 155.7"><title>资源 5861x</title><g id="图层_2" data-name="图层 2"><g id="图层_12" data-name="图层 12"><path d="M131.7,146.85a36.73,36.73,0,0,1,.85-9.12,14.22,14.22,0,0,1,7-9.72c2.55-1.47,3.29-3.22,2.7-6.12a24.65,24.65,0,0,0-3.55-8.31c-4.43-7-8.92-14-14-20.54A57.49,57.49,0,0,0,98.08,73.93c-6.17-2.19-12.34-4.4-18.83-5.51-3.72-.64-7.46-1.15-11.23-.31-3.15.7-4.38,1.88-5,5.09-.73,3.92-.21,7.81.42,11.68s1.34,7.42,2,11.13c.15.8.32,1.63-.43,2.2s-1.53,0-2.21-.31a24.86,24.86,0,0,1-13-15.34c-.57-1.74-1-3.53-1.52-5.29-1.58-5.43-4-6.93-10.39-6.46-6,.44-11.45,3.11-16.93,5.44-4.15,1.76-8.11,4-12.53,5.1a22.16,22.16,0,0,1-5,.83C.84,82.23-.68,81,.29,78.33a1.34,1.34,0,0,0,.05-.86C-.5,75,.67,73,2.16,71.21a20.19,20.19,0,0,1,2.7-2.77,19.58,19.58,0,0,0,6.78-11.09c.5-2.27,1.14-4.52,1.83-6.74,1.4-4.52,4.25-8.16,7.2-11.73A74.87,74.87,0,0,1,51.1,16.37a39.9,39.9,0,0,1,11.21-2.16c6.52-.6,13-1,19.58-1.55a8.1,8.1,0,0,0,4.62-1.88C88.59,9,90.65,7.23,92.7,5.43A20.56,20.56,0,0,1,109.49.19a7,7,0,0,1,1,.17c1,.29,2.13.51,2.5,1.65s-.71,1.74-1.38,2.42A24.45,24.45,0,0,0,107.8,9c-2.33,3.88-2.11,7.18.73,10.72,2.32,2.87,5.23,5.15,7.84,7.72,13.55,13.36,23.47,28.93,28.85,47.27a248.08,248.08,0,0,1,7.3,33.56,8.56,8.56,0,0,1,.13,1.33c-.14,5.42,2.69,8.94,7.23,11.37a28.1,28.1,0,0,0,6.63,2.65c4.46,1.1,7.82,3.8,10.69,7.18a110.12,110.12,0,0,1,10.4,14.69,9.06,9.06,0,0,1,.49.92c.1.26.37.55.07.81s-.57,0-.82-.1c-.76-.37-1.53-.72-2.27-1.14a37.4,37.4,0,0,0-16.55-4.79,54.9,54.9,0,0,1-12.21-1.73,11.27,11.27,0,0,1-5.42-2.94c-.43-.47-.7-.45-1,.07a14,14,0,0,1-4.34,4c-5,3.33-9.06,7.39-11.1,13.2-.26.74-.55,2-1.36,1.92s-.76-1.46-.92-2.29A28.68,28.68,0,0,1,131.7,146.85Z"/></g></g></svg>