<svg xmlns="http://www.w3.org/2000/svg" viewBox="0 0 198.66 89.17"><title>资源 5871x</title><g id="图层_2" data-name="图层 2"><g id="图层_12" data-name="图层 12"><path d="M136.53,68.05c19.57,2,36.35,3.64,53.07,5.64,3.42.41,8.85.62,9.05,4.71.26,5.29-5.66,4.88-9.23,5.54-20.64,3.79-41.55,4.78-62.46,5C91,89.28,55,90,19.27,84.8c-5.16-.75-13.8,0-13.9-5.85-.11-6,8.46-5.38,13.59-6C33.48,71.19,48.07,70,65.84,68.29,53.79,60.87,48.5,48.45,32.31,54.93,19.52,60,4.21,50,.77,37.78S5.94,17,18.28,8.68C35.89-3.2,54.25.74,72.48.36c30.46-.65,61,.12,91.41-.36C174-.15,176.82,3.4,175.13,13.07,171,36.58,157.85,53.78,136.53,68.05ZM27.76,46.87c2.08-2.62,11.19,2.56,9-6.83-1.6-7-5.31-13.51-8.26-20.16-1.74-3.91-5.09-3.6-8.4-2.44-7.4,2.61-11.55,7.68-10.57,15.77C10.76,43.05,17.52,46.37,27.76,46.87Z"/></g></g></svg>