<svg xmlns="http://www.w3.org/2000/svg" viewBox="0 0 181.18 141.6"><title>资源 5881x</title><g id="图层_2" data-name="图层 2"><g id="图层_12" data-name="图层 12"><path d="M58.44,70.07a252.49,252.49,0,0,1,1.89-27.88C63.77,17.09,84-.39,109.64,0a47.32,47.32,0,0,1,46.49,43.33c.68,7.21,2.51,12.12,10.05,15.83,11.64,5.71,15.26,17.15,15,29.74S176,112,164.27,117.67c-5,2.45-6.63,5.35-6.72,10.62-.14,9-4.06,13-13.23,13.1q-36.06.41-72.15,0c-9.72-.11-14-4.12-13.21-13.69,1.21-14.44-3.2-26.48-11.05-38.31-9-13.65-16.88-28.11-25-42.33-2.61-4.55-4.56-7.46-10.41-3.32C7.3,47.42,3.14,44.23,1,38.87c-3.3-8.08,2.44-23.18,10.25-27.33,5.65-3,11.77-.34,11.49,6.62-.47,12.06,7.23,18.78,13.93,26.51C43.51,52.63,50.34,60.64,58.44,70.07Zm50.23-27.51c10.09,0,20.18-.16,30.26.07,6.1.14,6.9-2.34,5-7.53-5-13.71-19.45-24-34.78-24.4-15.56-.39-30.78,9.57-36.27,23.38-2.32,5.84-1.48,8.71,5.51,8.53C88.49,42.35,98.58,42.54,108.67,42.56Zm49.09,45q0,10.26,0,20.51c0,4,2.17,4.88,5.3,3.08,8.74-5,12.1-13.27,12-22.79s-3.18-17.78-12.11-22.71c-3.29-1.81-5.2-1-5.2,3C157.76,75,157.75,81.3,157.76,87.59Z"/></g></g></svg>