<svg xmlns="http://www.w3.org/2000/svg" viewBox="0 0 134.81 157.87"><title>资源 5891x</title><g id="图层_2" data-name="图层 2"><g id="图层_12" data-name="图层 12"><path d="M0,106.23C0,74.37,17.94,57.48,53.78,56.5c7.57-.2,6-3.16,4.33-6.66C54.53,42.29,48.84,36.11,41.69,31c-3.52-2.52-8.25-5.27-4.45-9.75,4.16-4.89,8.73-1.31,12.81,1.09,1,.59,1.86,1.42,2.87,2,3.24,2,5.33,6.84,9.83,5.49,5.5-1.66,1.8-6.35,2.1-9.68C66.25,4.75,88.77-3.43,105.69,1.37c3,.85,3.67,2.88,4.27,5.09,1.17,9,.86,18.35-5.83,25.94-6,6.83-13.88,10.12-23.81,6.73-5.33-1.82-10-.26-9.42,4.78s-.93,13,9.31,12.52c13.19-.63,25.15,2.1,35.54,9.47,19.39,13.75,24.85,44.6,12.36,68.9-10.53,20.49-29.65,27.91-56.65,19.2-6.94-2.25-4.16-1.67-8.44-.07-35.29,13.22-61.68-8.35-63-42.21C0,109.89,0,108.06,0,106.23Z"/></g></g></svg>