<svg xmlns="http://www.w3.org/2000/svg" viewBox="0 0 188.09 160.66"><defs><style>.cls-1{fill-rule:evenodd;}</style></defs><title>资源 5901x</title><g id="图层_2" data-name="图层 2"><g id="图层_12" data-name="图层 12"><path class="cls-1" d="M69,9.41c4.38,1,6.69.6,11,3.91-.75-3.94-5.43-4-5.49-8.62,6.72,1.41,8.43,4.18,11.76,7.84C87.58,9.06,81,6.79,82.29.79c4.3.92,5.11,5.33,8.62,7.05C90,19.67,98.31,29.89,109.72,24.3c-1.1-3.5-8.5-8.53-5.48-11,4.2,1.55,4.06-.58,6.26,2.35.78-7.66-8.81-8.8-6.26-15.67,11.54,1.78,13.37,13.27,16.45,23.51,2.45,1.06,7.21,1.38,8.62-.78-.1-3.56-1.91-5.4-2.35-8.62-.8-2.64,2.44-1.22,3.92-1.57-.53-4.15-5.68-6.64-2.35-10.19,9.62,1.61,7.27,15.2,11.75,22,8.43-2,9.43-11.48,9.41-21.95,9,4.14,5.39,22-1.57,25.08,10,9.79,31.65-11.72,38.4,1.57-.29,2.58-1.82,3.92-3.13,5.48.83,2.05,4.11,1.64,4.7,3.92-1.09,3.87-3.65,6.28-8.62,6.27-8.22,10.33-9.53,27.57-17.24,38.4-4.84,2.74-7.92,7.24-12.54,10.19a5.09,5.09,0,0,1-3.92-.78c-5,7.06-15.8,3.54-21.16,10.19-2.57-.3-3.45-2.29-5.48-3.14-.77,21.61-2.43,45.89,7.83,61.13h-9.4c-1-2.69-1.79-5.51-3.92-7,.93-16.87-4.46-27.41-6.27-41.54-6.4,12.66-19.86,29.64-12.54,46.24-3.2,2-7.08-1-11.75,0C84.41,140.86,96,122.87,96.4,99.53,84.69,99,69.91,101.59,58,98c-5,5.84-10.82,13-11.76,21.16-1.77,15.29,11.27,27.14,16.46,37.62h-11c-5.35-12.94-10.71-25.86-18-36.84,2.67-4.14,3.85-14.94,0-18.81-20,3.25-33.88,33.06-18,50.94-3.44,2.37-8.32-.53-12.54,0,1.12-4.77-1.57-5.74-3.13-7.83,1.84-11.75,1.9-25.27,4.7-36.06,10.81-5.81,13.51-20.73,9.4-34.48-.95-3.19-3.88-5-3.91-8.62-.13-14.75,28.14-20.52,47-18.81C71.68,47.55,84,51.73,96.4,50.16c5.26-.67,13.7-3,20.37-3.92a19.61,19.61,0,0,0,7.84.78c1.86-4.48-3.94-5.52-1.57-11,7.31-2.44,11.27-.23,16.46,2.35.75-10.91-18.53-3.49-18-3.92-4.68,4-10.25.35-14.89,0-2.57-.19-6.31,2.13-10.19.79C83.38,30.76,69,25.52,69,9.41Z"/></g></g></svg>