<svg xmlns="http://www.w3.org/2000/svg" viewBox="0 0 211.96 133.45"><title>资源 5911x</title><g id="图层_2" data-name="图层 2"><g id="图层_12" data-name="图层 12"><path d="M.16,108.62C-1,101.18,4,98.29,5.78,93.09a1.7,1.7,0,0,0,1.3-.93c2.66.58,4.76-1,6.37-1.69,2.1-.86,4.35-1.21,6.55-1.87,8.91-2.69,17.94-5,26.19-8.61s16.06-7.42,23.58-11.41A3.92,3.92,0,0,1,72,66.89a99.09,99.09,0,0,1,8.79-9C84,55.21,86.64,51.86,90,49.31c2.66-2,6-3.45,8.8-5.43,1.4-1,2.55-2.15,3.92-3.18A67,67,0,0,1,116.35,33c5.47-2.31,11.26-5.38,17.4-6.55,8.51-1.61,13.58-6.14,19.09-10.66,3.91-6.2,9.71-12.72,18.33-15.35,2.77-.84,7.86-.38,10.85,0,8.19,1,15.77,4.84,17.59,12.73,3,1.41,6.15,2.71,8.6,4.67,1.41,1.13,3.37,3,3.75,4.87a3.3,3.3,0,0,1-3,.38c.27.85,1.69.55,1.69,1.68-1.73,1.39-4.22.32-5.8.18a12.52,12.52,0,0,0-12.54,7.49c-2.78,6.85-2.74,17.66-4.86,26.76-.36,1.52-1.25,3-1.68,4.49a51.3,51.3,0,0,1-6,12.91c-.35,2.22-2.18,4.31-3.93,6.54A39.66,39.66,0,0,1,167.43,91c-1.47,1.11-2.7,2.49-3.93,3.37-2.86,2-6.66,3-9.54,4.87-2,1.25-3.72,2.75-6,3.55,3.24.12,5.42,1.31,8.23,1.87a3.49,3.49,0,0,1,.38,2.25c2.15,1.46,6.2,1,6.73,4.11-5.16,1.75-10.92-1.27-15.53-1.31,1.3,1.05,3.58,2,3.37,3.93-3.39.31-6.65-1.46-9.73-2.8s-6.7-2.05-10.1-3.19c-1.4.54-3.31.57-4.68,1.13.82,2.38,2.3,4,3.93,6,1.36,1.68,3.55,4.9,6,5.06,5.87.37,13.33-2.42,18,1.31-.1,2.14-3.79.69-5.05,1.68a53.38,53.38,0,0,1,5.8,2.62c1.86,1,3.84,1.93,5,3.55-1.74,1.43-4.34,0-6.93-.74a44.22,44.22,0,0,0-6-1.31c1.41,2.09,4.37,3.6,4.49,6.36-4.26.78-7.09-1.94-10.29-3.93a53.26,53.26,0,0,0-7.3-3.93c-4.84-2-9.76-1.34-15.9-2.62.08-3.91,7.84-2.54,10.66-3.74-2.14-.58-3-2.33-4.3-3.56a18.26,18.26,0,0,0-2.81-1.86c-1.8-1.14-3.58-2.75-5.61-3.56-.84-.33-1.76-.3-2.62-.56-1.77-.54-3.66-1.53-5.61-2.25s-4.25-1.11-6-2.06a128.41,128.41,0,0,0-22.45-9.73c-6.72-2.13-13.08-4.7-21.89-4.3-5.61.26-11,.56-15.91,1.87C37.14,94.37,32.63,95.85,28,97.4c-9,3-16.56,8-23.76,12.53-.45-.23-.08-1.06-.56-.56C3.53,111,1,109.47.16,108.62Z"/></g></g></svg>