<svg xmlns="http://www.w3.org/2000/svg" viewBox="0 0 147.21 214.08"><defs><style>.cls-1{fill-rule:evenodd;}</style></defs><title>资源 5921x</title><g id="图层_2" data-name="图层 2"><g id="图层_12" data-name="图层 12"><path class="cls-1" d="M123,2.09c.53,11,9.79,13.94,9.75,24.6,0,3.37-2.5,9.08-4.65,13.46a85.49,85.49,0,0,1-5.1,9.18c-2.86,4.87-3,3.54-6,9.28s-5.11,11.81-8.36,15.79c-2.64,3.25-7.11,9-8.34,13.45-3.45,2.44-7.77,4-10.68,7C81.82,96,73.51,96.91,66.38,99.46c-2.73,1-4.85,3.34-7.43,3.71-4.63.68-10.28-.73-14.39.47-4.34,2.62-8,5.9-13.46,7.42-5.57-6.85-8.47-1.61-9.74,2.79-9.1-.5-13.47-6.86-21.36-7.42,2.07,2.85,3.59,8.31,4.64,10.67.44,9.52-7.69,18.81-.92,26.46-.14,2.92-.07,5.63.92,7.43,2.62.63,5.19,3.11,8.36,3.24,5.51.24,9.74-5.4,15.78-4.18,3.53.73,9.7,7,11.14,11.15.53,1.51,0,2.9.46,4.17s2.28,2.47,2.32,4.65-1.94,4.15-2.78,6.49c-2.15,6.05-4.13,12.19-7,18.11-1.72,3.58-3,7.64-4.18,9.28-1.93,2.62-6.15,3.29-5.11,8.82,3.36,2.88,9.43.18,14.86.93,5.17-11.23,12.16-20.65,18.1-31.1,3,4.14,5.91,8.32,6.5,14.85-1.26,2.26-3.38,4.7-2.32,7.89,5-.57,9.66,1.29,13.92,0,2.58-14.19-9.7-23.81-6.5-36.2,2.85-2.48,18.89-9.47,20.89-2.33,1.81,6.45-4.92,15.77-7.42,22.75a13.84,13.84,0,0,0,0,9.75c1.63.53,3.82.51,5.56.93a38.3,38.3,0,0,1,5.57-4.64c2.45-12.1,7.82-21.28,10.22-33.42a6,6,0,0,1,4.64-1.4c1.5.23,12.36,9.55,13.92,13,2.83,6.26-.22,12.63-1.39,19-2.41,1.23-5.13,5.22-2.78,8.35,3.29,1,8.47.19,12.53.47a106.29,106.29,0,0,0,5.57-41.78c-.54-7.34-2.24-14.43-2.32-21.35-.08-7.32,1.37-14.37.93-20.88-.35-5.09-2.24-9.09-2.79-12.54-3.71-6.39-3.81-13.61-5.1-20.42,0-2,.12-3.92,0-4.64,6.42-20.31,17.64-33.79,18.57-40.75,3.71-6.5,2.31-14.16.92-17.64S134.11,3.82,131.36,1.16C128.47-.28,124.61-.79,123,2.09Z"/></g></g></svg>