<svg xmlns="http://www.w3.org/2000/svg" viewBox="0 0 122.8 173.75"><defs><style>.cls-1{fill-rule:evenodd;}</style></defs><title>资源 5931x</title><g id="图层_2" data-name="图层 2"><g id="图层_12" data-name="图层 12"><path class="cls-1" d="M69.33,0c-1.79,5.19,1.09,14.34.35,19.9S64.26,32.37,62.1,38.7c-3.39,9.93-4.54,19.49-10,26.34-.22,1.09-30.21,34.55-45.17,52.35C4.52,124.1-.75,128.48.09,136.21c.36,3.37,2.84,13.93.3,18.39,1,.46,1.3,1.56,3,1.44-.82,1.33-2.94,1.4-3.08,3.38,6.85,3.69,19.11,2.62,26.11,6.16a3.44,3.44,0,0,0,2.26-.29c3,1.35,7.15,2.93,9.74.92-2.46-3.81-4.69-7.82-11.83-7.53,3.72-.65,6.11-2.58,8.74-4.28,7.84-2.29,17.66,5.8,21.41-1.21-3.06-3.6-8.7-4.9-14.91-4.16,2.24-1.67,10.09-1,10.62-4.57.3-2.1-3.76-3.24-4-4.93-.29-1.89,2.38-5.09,3.52-6.13,4.69-4.28,12.68-6.88,19.77-10.23a236.61,236.61,0,0,1,13.87,31.41c.23,1.51-.68,1.93-.46,3.44a2.78,2.78,0,0,0,3.36.77c3.64,5,4.47,15.73,14.32,13.11,1.36,1.87,5.27,2.4,8.22,1.24.15-2-2.54-4.25-3.6-6.3-7.72-1.79-10.43-8-12-15.13,3.43,3,4.78,7.75,8.38,10.56,4.8,0,11.34,2.47,14.64-.34-1.19-4.62-5.85-3.12-10-4.73-5.18-2-8.2-16.84-10-23.37-1.23-4.6-1.59-9.22-2.27-14.56-.57-4.37-2.88-10.75-2.28-14.55.77-4.8,5.87-8.75,5.63-15.74a39.23,39.23,0,0,0-2.72-11.46c-1.21-3.25-5.37-4.66-6.94-8.11-3.33-7.34-.61-17.95,2.1-24.81,1.69-4.26,7.1-2.94,12.1-3.51,2.35-.26,4.39-2.35,8.28-1.52,4.58-3.24,9-6.61,10.45-12.87-6.63-4.81-15.06-2.49-21.63-5.7-3.89-1.89-4.51-4.37-7.76-5-4.25-.84-11.09.66-14.6-1.39C77,9.62,75,1.55,69.33,0Z"/></g></g></svg>