<svg xmlns="http://www.w3.org/2000/svg" viewBox="0 0 141.73 155.97"><title>资源 5941x</title><g id="图层_2" data-name="图层 2"><g id="图层_12" data-name="图层 12"><path d="M123.24,127.55c.94-8.15,6.35-13.86,7.4-22.17,1.85-14.65-5.14-33.48-14.17-45-6.79-8.64-18.37-15.28-28.35-16-13.13-1-21.13,5.22-29,6.78-2-8.22,8.35-12,15.41-17.87,9.08-7.54,20.8-20.87,11.7-30.19-10.79-2.91-18.51,5.1-23.41,8C63.35,3,58.15-.18,53,0,41,.44,40.74,20.34,35.75,27.73c-8,.53-18.26,1.82-23.42,8.63-2.92,3.86-3.8,10.28-6.16,14.79C3.28,56.67-.2,61,0,66.55.33,75.1,7.78,78.93,15.41,82c-3,19.48.24,36.63,8.63,48.06.55.75,4.92,4.75,4.93,4.93.1,2.53-6.81,4.8-5.55,8,3.29,4.42-.81,11.82,7.4,12.94h8c17.17.78,34.42-5.12,51.14-7.39,9.17-1.25,18.78-.76,27.11-3.08,2.35-.66,3.76-2.74,6.16-3.7,6-2.4,14.82-1.45,18.49-7.4C140.23,127.72,129.93,127,123.24,127.55ZM23,52.9c-1.8,0-2.73-.68-2.41-2.71a6.82,6.82,0,0,1,6.52-5.91c1.16,0,2,.25,2.22,1.61C29.7,49,26.19,52.9,23,52.9Z"/></g></g></svg>