<svg xmlns="http://www.w3.org/2000/svg" viewBox="0 0 173 164.86"><defs><style>.cls-1{fill-rule:evenodd;}</style></defs><title>资源 5951x</title><g id="图层_2" data-name="图层 2"><g id="图层_12" data-name="图层 12"><path class="cls-1" d="M172.77,139c0,.7.23,4.38.23,5.08,0,1.41-6.52,4.6-7.69,3.29-1.17-.94-12.84-73-13.46-73.06-5.84-4.32-12.62-5.57-20.39-8-2.33,1.24.41,3.72-.69,6.22-2.91,1-6.31.33-10,.7a60,60,0,0,1-1,9.68c0,4.83-2.85,9.5-3,14.12,0,9.1,1.33,18.53,1.26,26.89-.06,8.57-1.58,16.06-1.78,24.57,1.62,2.75,1.37,3.79,2.19,7.35-2.53,4.75-12.76,2.88-17.63,1.92-2.63-1.24-1.57-3.76-.69-7.29-.37-1.72.82-7.68.7-9-4.74,1.59-9.12,8.34-11,12.78-9.12-.13-14.26-11.74-11-19,4.53-2.2,15-6.42,14.54-6.61-.2-1.47-12.45-19.28-16.72-25.36-15.15,5.71-28,6.09-31.8,6.57,2.62,10.54,4,30.45,5.68,38.18,3.95,1.75,8.78,8.33,6.58,11s-18.42,2.19-21.49-.44C35,152,32.18,129.8,29.33,118.68c-11,13.6-10.92,25.6-12.28,33.33,1.68,3.86,5.38,4.88,5.27,10.53-4,3.23-22.37,4-21.49-3.51-3.95-8.77,7.55-33.22,7.23-33.59,2.27-11.59,3-24.28,5.53-35.95-.34-1-2.6-6.28-2.42-6.56-.05-.77-3.11-14.37-2.77-15.22-2.71,3.76-.48,20.71-1.73,22.13.06.4-3.78,8.21-4.14,8S4.85,56,4.77,55.53s6.48-28.21,22.35-35.26c24.24-6.61,50.68,2.21,58-.6.75-.06,15.67-2.31,16-3.36.57,0,.06-2.88-.88-4.85.51-.77,15.43-10.58,19-11.46,15,2.2,16.63,17.51,24,17.25,0,.34,2.07,1.6,3.46,1,8.25,1.54,20.9,38.18,21.09,37.67,1.79,1.27,2.83,17.2,2.14,17.2.17,2.59-.39,7.2-1.11,7.34a112.14,112.14,0,0,0,.39,41.38ZM162.22,116.8Z"/></g></g></svg>