<svg xmlns="http://www.w3.org/2000/svg" viewBox="0 0 170.94 174.42"><title>资源 5781x</title><g id="图层_2" data-name="图层 2"><g id="图层_12" data-name="图层 12"><path d="M106.12,72.93c1.46-5.82,3.52-9.66,1-14.51-8-15.45-3.75-36.06,10.06-46.21C131.36,1.79,147.89-.69,165,.15c4.8.24,7.13,1.62,5.26,7.49-3.39,10.62-4.56,21.91-8.9,32.3-7.61,18.23-21.15,26.55-40.36,24.6-2.1-.21-3.48-.75-4.77,1.82-4,7.85-3,13.57,3.56,19.2,6.93,6,13.74,12.06,20.54,18.18,3.16,2.84,5.21,6.32,3.53,10.69-1.75,4.56-5.33,6.81-10.16,5.85-5.65-1.13-5.34,2.65-5.36,6.13-.07,12.92-.21,25.84,0,38.76.12,6.48-2.13,9.32-8.95,9.16-15.65-.35-31.32-.26-47-.05-5.9.08-8.22-2.31-8-8.18.25-7.45-.12-14.93.09-22.39.16-5.36-1.74-8.17-7.37-7.83a78.48,78.48,0,0,1-8.54,0c-5.58-.27-7.57,2.58-7.47,7.89.15,7.46-.14,14.93,0,22.4.11,5.8-2.3,8-8.16,8.14-16.37.38-16.37.6-16.37-16.13,0-11.19,0-22.39,0-33.59,0-3.14.64-6.92-4.83-4.83-4.87,1.86-8.32-.56-10.63-4.68-2.61-4.67-.32-8.35,3.06-11.39q23.9-21.49,47.9-42.86C56.35,57,60.73,53.37,65,49.53c5.14-4.65,9.88-4.51,15,.26C88.29,57.46,96.89,64.79,106.12,72.93Zm-11.8,54.15c6.26,1.19,10,.13,9.66-7.54-.31-6.55,0-12.12-9.18-11.23-5.5.54-10.73-.52-10.63,8.08C84.27,124.06,85.57,129,94.32,127.08Z"/></g></g></svg>