<svg xmlns="http://www.w3.org/2000/svg" viewBox="0 0 197.04 194.49"><title>资源 5791x</title><g id="图层_2" data-name="图层 2"><g id="图层_12" data-name="图层 12"><path d="M116.8,194.43c-18.39,0-36.79.16-55.18-.05-16-.19-26-9.17-25.88-22.7.11-11.8,11.4-22.71,25.42-22.75q56.37-.17,112.75.9c13.72.24,21.44,9.59,21.55,24.09.09,11.45-8.8,20.05-22.23,20.33-18.8.41-37.62.11-56.43.11Z"/><path d="M146.56,144.41c-12.95,0-25.9,0-38.84,0-4.37,0-8.46-.17-9.35-5.86-3.58-23,3.6-43.67,13.29-63.8,1.73-3.6,5.54-4.93,9.57-4.86,2.09,0,4.17.24,6.26.29,26,.72,26.27.71,27,26.64.23,7.8,2.68,11.85,10.87,11.45,4.17-.21,8.35,0,12.53,0,18.35,0,19.15.85,19.11,19,0,16.53-.59,17.1-16.66,17.13Q163.48,144.44,146.56,144.41ZM143.43,98.7c-1.06-4.85,3-12.87-5.93-15-6-1.41-13.54-2.73-17.37,3.45-4.74,7.68-9.14,16-8.6,25.64.06,1.15,2.1,2.51,3.51,3.2A19.46,19.46,0,0,0,143.43,98.7Z"/><path d="M15.58,80.46c-12.83-6.18-14.27-16-11-28.91s4-26.44,6.63-39.55c2.39-12.07,7.49-14.47,19-9.72,7.71,3.2,15,8,22.93,10,25.53,6.59,41.24,23.2,52.18,46.31,4.61,9.76,1,17.28-3.33,24.67-3.43,5.93-6.22.55-8-2.38C88.2,71.24,82.44,61.52,77.09,51.58c-9.3-17.28-28.62-17-43.28-24.75-3.75-2-4.92,3.14-5.53,6.47Q25,51.19,21.77,69.09c-.81,4.49-.83,9.42-6.35,11.24Z"/><path d="M15.42,85.56c6.68,7.1,15.57,11.11,23.3,16.75,4.75,3.47,9.49,1.86,14.36.59,2.42-.64,5.18-1.3,7,1s.48,4.81-.85,7c-7,11.33-16.2,20.23-29,24.61-11.33,3.89-19.77-.29-23.38-11.94-2.58-8.34-4.19-17-5.84-25.6C-1.87,83,1,80.67,15.58,85.68Z"/></g></g></svg>