<svg xmlns="http://www.w3.org/2000/svg" viewBox="0 0 295.55 133.24"><title>资源 5801x</title><g id="图层_2" data-name="图层 2"><g id="图层_12" data-name="图层 12"><path d="M188.47,54.11C212,68.9,232.31,82.37,258.3,67.64a40.61,40.61,0,0,1,13.89-4.75c9.49-1.4,17.53,3.55,22,10.7,5,7.92-5.22,10.84-8.79,15.9-17.14,24.27-40.8,16.4-63.36,12.26-15.69-2.87-31.22-6.7-46.71-10.53-10.17-2.51-12.08,1.19-9.19,10.24,2.05,6.43,3.51,13.05,5.07,19.63,1,4.17,2.34,8.9-2.74,11.29-4.41,2.08-9.23.13-11.75-3.12-10.49-13.54-23.82-26.36-29.19-41.83-3.37-9.7-7.51-12.15-14.7-14.51C83,63.17,53.66,52.27,25,39.6c-12.6-5.55-28-12.5-24.43-28C4.36-4.81,21.17.67,33.63,1.72c19.8,1.67,38.74,7.5,56.86,15,23.76,9.83,47.18,10.57,71.88,4.46,22-5.46,44.61-8.85,66.91-13.3,6.18-1.23,12.26-2.19,17.63,2.05,3.77,3,8.69,5.59,8.35,11.29-.31,5.19-5.19,6.41-9,8.08C227.83,37.27,209.4,45.13,188.47,54.11Z"/></g></g></svg>