<svg xmlns="http://www.w3.org/2000/svg" viewBox="0 0 170.69 261.02"><title>资源 5811x</title><g id="图层_2" data-name="图层 2"><g id="图层_12" data-name="图层 12"><path d="M57.07,194.79c-.16.79-.21,1-.25,1.29-.16,1-.64,1.72-1.68,1.67s-1.32-1-1.48-1.88a24.11,24.11,0,0,1-.26-2.4c-.24-3.45-1.48-6.65-2.41-9.94a29.79,29.79,0,0,1-1-11.37c.5-4.44-.9-8.31-2.81-12.11a91.42,91.42,0,0,1-5.6-14.62c-1.07-3.52-2.45-7-3-10.63a2.12,2.12,0,0,0-.48-1.09c-4.14-4.27-4.84-9.87-5.75-15.31-.71-4.3-1.48-8.59-2.12-12.88-.81-5.39-1-10.92.43-16.34A67.2,67.2,0,0,0,32.1,78.43c.59-5.7,1.78-11.08,5.41-15.72a19.94,19.94,0,0,0,2.83-5.53A20.21,20.21,0,0,1,47,47.55a2.16,2.16,0,0,0,.72-3.12,4.75,4.75,0,0,1-.07-4.82,2.35,2.35,0,0,0,.27-1.36c-.47-4.26.9-8,3-11.63a6.82,6.82,0,0,1,3-3.07,31.92,31.92,0,0,1,12.35-3.33c4.27-.2,7.06,2.5,9.46,5.63A36.62,36.62,0,0,1,78.59,30c.67,1.19,1.5,1.25,2.68,1,9.11-1.91,17.56-5.71,26.14-9.12,2.68-1.07,5-3,7.27-4.68a46.87,46.87,0,0,1,14.67-7.78c3-.9,6.17-2,9.43-.72a1.1,1.1,0,0,0,.59.07c3.76-.74,5.31,2.06,7.1,4.44,1.08,1.44.79,2.72-.6,3.85-2.8,2.26-5.8,3.91-9.79,3,.17,1.09,1,2,.15,2.78s-1.8.37-2.68.18a12.46,12.46,0,0,1-3.26-1c-1.63-.87-2.74-.42-3.86.86-2.69,3.11-5.52,6.18-9.17,8.06-3.4,1.76-6.64,3.78-10,5.54-8,4.14-16.16,7.91-23.55,13.06-3.08,2.14-3.54,5.75-3.84,9.12-.26,2.93-.33,5.87-.71,8.81A34.94,34.94,0,0,1,77.27,74a94.58,94.58,0,0,0-3,11.68A17.24,17.24,0,0,1,72.05,91c-.87,1.5-1.86,3-1.91,4.81a2.43,2.43,0,0,0,2.5,2.77,6.44,6.44,0,0,0,2-.05c4.2-.95,8.54-.89,12.76-1.68,7.12-1.33,14.29-1.13,21.47-.92,6.3.17,12.6.49,18.9.72a25,25,0,0,1,7.12,1.17c3.41,1.12,5.38,4,7.61,6.39,5.79,6.33,11.4,12.81,17,19.27,1.33,1.51,2.54,3.12,3.74,4.74a1.82,1.82,0,0,0,2.52.73c6-2.37,11.29-5.49,15.1-10.87,1.12-1.57,2.82-2.71,4-4.27,1.86-2.55,7.32-2.52,9.66.41,2.83,3.55,3.87,7.67,4.58,12,1.66,10.3,1.21,20.62.15,30.87a104.52,104.52,0,0,1-5.83,24.6c-3.55,9.93-8,19.47-12.45,29-4.78,10.14-9.88,20.12-16.7,29.06a151.15,151.15,0,0,1-11.05,13,149.25,149.25,0,0,1-16,14.63c-1.32,1-2.56,2.32-4.47,1.2s-2.14-2.71-2-4.81c.44-5.69.72-11.38,1.37-17,.75-6.6,1.74-13.16,2.88-19.7,1.41-8.06,2.9-16.1,4.4-24.14a27.15,27.15,0,0,1,1.44-6c1.77-4,.17-7.47-1.67-10.62-4.61-7.87-9.6-15.51-14.43-23.24-3.09-4.94-6.28-9.82-9.16-14.9-1.64-2.9-1.85-6.14-2.6-9.25a2.41,2.41,0,0,0-2.07-2.06,24.14,24.14,0,0,0-11.15.31c-5.67,1.32-11.36,2.55-17,4-4,1.07-8,2.28-12.06,3.09a70.35,70.35,0,0,1-13.19,1.12c-1.79,0-2.15.55-2.11,2.37.13,6,2.62,11.32,3.8,17,1,5.07,4,9.33,5.11,14.35a58.1,58.1,0,0,1,1.42,15.55c-.16,3.17-.61,4.26-2.51,4.61a5.2,5.2,0,0,1-5.53-3.08C57.55,196,57.43,195.65,57.07,194.79ZM122.31,117c4,3.6,4,3.6,5.75,8.9a12.35,12.35,0,0,0,.55,1.3A137.29,137.29,0,0,1,136.1,148c2.6,9.85,7,18.83,12,27.58.13.23.33.44.81.18a74.12,74.12,0,0,1,3.34-11.64A212.91,212.91,0,0,1,160.46,144c.72-1.51.6-2.41-.69-3.42-2.38-1.85-5.11-3.32-6.94-5.78a17.85,17.85,0,0,0-4.6-4.16c-5.9-4-11.76-8-17.28-12.48C128.25,116,125.57,116.43,122.31,117Z" transform="translate(-29.52 -8.11)"/></g></g></svg>