<svg xmlns="http://www.w3.org/2000/svg" viewBox="0 0 130.54 122.05"><title>资源 5821x</title><g id="图层_2" data-name="图层 2"><g id="图层_12" data-name="图层 12"><path d="M0,93.26v-10C2.61,73.09,9.83,68,19.55,65.59a36,36,0,0,1,10.67-1.21,7.07,7.07,0,0,0,6.18-2.85A116.89,116.89,0,0,0,58.92,21.9C60.21,18,61,14.15,59.85,10a20.48,20.48,0,0,1-.59-6.3c.1-2.9,2.73-4.65,5-3.18s4.32,1.35,6.6,1.29a55.3,55.3,0,0,1,11.27.89C94.8,5,104.79,12,113.57,21c4.81,4.93,9.48,9.88,17,10.28V33c-21.29,11.38-41,9.7-59.13-7.65.29.94.38,1.38.55,1.78A119.82,119.82,0,0,0,93,60.65a10.66,10.66,0,0,0,7.3,3.75,39.6,39.6,0,0,1,13.72,4.06C121,72,125.68,77.35,126.28,85.35c1,13.53-4.85,23.9-15.62,31.63a25.24,25.24,0,0,1-18.29,4.86C74.64,119.54,61,99.56,65.24,82.15c2.29-9.44,9.1-14.1,17.93-16.5,2.92-.8,3-.83,1.17-3.31C76.85,51.9,70.16,41,65.27,29.07c-.16-.41-.24-.91-1-1.12-.77,1.9-1.55,3.84-2.34,5.77-4.07,10.06-10.35,18.9-15.54,28.34-2.21,4-2.36,3.61,1.73,5.35,8.07,3.43,12.79,9.47,13.42,18.35.75,10.44-2.86,19.41-9.89,27-10.57,11.38-26.25,12.36-38.33,2.58A38,38,0,0,1,0,93.26Zm7.8-6.77c.2,1-.36,2.65,1.26,2.8,1.81.17,1.67-1.62,1.78-2.82a11.77,11.77,0,0,1,3.77-8c.83-.75,1.85-1.63.74-2.73s-2,0-2.84.67A14.67,14.67,0,0,0,7.8,86.49Zm63.41.74c.11.53-.15,2,1.29,2.12S74,88,74.12,87c.41-3.26,1.34-6.26,3.93-8.52.8-.7,2-1.6.85-2.72s-2.21-.07-3.05.73A15,15,0,0,0,71.21,87.23Z"/></g></g></svg>