<svg xmlns="http://www.w3.org/2000/svg" viewBox="0 0 180.75 241"><title>资源 5831x</title><g id="图层_2" data-name="图层 2"><g id="图层_12" data-name="图层 12"><path d="M0,230.88c4.62-14.74,14.77-24.09,28.88-29.5,8.32-3.18,16.73-6.13,25.07-9.26A15.55,15.55,0,0,0,60.61,188,9,9,0,0,0,63,181.6c-.32-9.25,2.43-17.72,6.37-25.91a94.11,94.11,0,0,0,5.89-17c3.32-12.53,9.66-23.34,17.63-33.38,5.67-7.14,11.59-13.9,19.5-18.71,3.45-2.1,3.86-5.28,1.57-8.65-2.11-3.1-4.67-5.91-6.13-9.45a17.34,17.34,0,0,1-1.52-9.61c.41-2.41-.63-4.19-2.16-5.81a68.69,68.69,0,0,1-9.51-12.67,25.23,25.23,0,0,1-2.5-6.24c-1.24-4.71,1.23-7.31,6-6.5,6.34,1.06,12.09,3.75,17.84,6.42a5.71,5.71,0,0,0,5.47.07c2.58-1.31,5.15-2.65,7.8-3.79a7.42,7.42,0,0,0,4.63-6.19c.75-4.53.2-9.16,1.38-13.64.42-1.62.65-3.31,1.12-4.92C137.05,3.31,138,1.2,140.26,0h1a7.75,7.75,0,0,1,2.85,1.74c5.27,5.52,9.78,11.58,11.24,19.24a20.09,20.09,0,0,0,5.85,11.25c4.54,4.4,7.15,10,8.67,16.1s.79,12.15.87,18.23A23.17,23.17,0,0,0,172,74.08c3,8.38,6.17,16.72,7.67,25.55a2.67,2.67,0,0,0,1.08,2.07v12.53c-1,.7-.91,1.85-1.14,2.83a234.52,234.52,0,0,1-7.82,27,25.37,25.37,0,0,1-2.89,6.21,45.14,45.14,0,0,0-7.44,15c-2.23,8.87-4.11,17.81-5.8,26.8-1.56,8.29-1.64,16.3,3.76,23.46a10.49,10.49,0,0,1,1.11,2.13,11.46,11.46,0,0,1,1.06,4.66c0,2.13-.87,3.48-3.07,3.92a51.72,51.72,0,0,1-6.67.94c-3.31.23-3.51.56-2.9,3.84s-.11,4.58-3.33,5.2a47.4,47.4,0,0,1-14.35.9c-5.6-.64-7.09-2.6-7.09-8.28v-5.16c-2.68,4.58-6.2,6.05-10.68,5.78-14.25-.86-28.24-3-41.58-8.26-4.21-1.65-8.78-3.2-11.34-7.23-2-3.15-4.66-3.79-7.95-3.84-6.91-.09-13,2.48-18.86,5.75-9,5-16.88,11.18-20.17,21.6A8.08,8.08,0,0,1,11.09,241H5.3l-2.9-1.46,0,0L0,236.18Zm141.38-32.82a15.12,15.12,0,0,0,1.06-3.4c.39-5.47-.73-10.84-1.38-16.23-.19-1.63-2.27-2.42-4.25-1.89-1.76.48-1.28,1.79-1,2.93q2.08,8.26,4.25,16.51A2.63,2.63,0,0,0,141.38,198.06Zm5.86-151.84c2.95,0,6.18-3.61,5.83-6.47-.15-1.26-1-1.5-2-1.49a6.3,6.3,0,0,0-6,5.45C144.72,45.59,145.58,46.2,147.24,46.22ZM124.09,58.7c2.51,0,4.94-1.67,4.89-3.36,0-1.37-2.25-2.69-4.56-2.73s-4.63,1.75-4.64,3.39C119.77,57.37,121.89,58.7,124.09,58.7Z"/><path d="M0,237.14a2.79,2.79,0,0,1,.12.34s-.08.1-.12.15Z"/><path d="M2.89,241h0Z"/><path d="M2.4,239.54l0,0Z"/></g></g></svg>