<svg xmlns="http://www.w3.org/2000/svg" viewBox="0 0 186.12 215.37"><title>资源 5841x</title><g id="图层_2" data-name="图层 2"><g id="图层_12" data-name="图层 12"><path d="M54,20.66a12,12,0,0,0-.45,3.71c0,.36.06.85-.39,1s-.67-.43-.84-.81c-3-6.86,1.34-15.44,8.63-17.24a17.18,17.18,0,0,1,7.87-.47,12.88,12.88,0,0,0,4.83-.08A15.5,15.5,0,0,1,85.42,9.17C89.56,12.12,94,14,99.19,13.31c2.13-.26,4.06.72,6,1.53,2.86,1.22,4,1.1,6-1.2A128.2,128.2,0,0,1,122.59,2.3,9.89,9.89,0,0,1,125.43.46c1.42-.55,2.88-.78,4.11.32a4.05,4.05,0,0,1,1.39,4.1c-1.26,5.34-.16,10.42,1.75,15.36,1.56,4.06,3.37,8,5,12.06.43,1.05.88,1.21,2,.86a245.72,245.72,0,0,1,33.17-8.33A14.59,14.59,0,0,1,180,25q6.19,2.09,6.16,9.81c0,4.55-1,8.76-4,12.52-4.38,5.47-6,12.12-7.11,18.92-1,6.54-2.29,13-5.22,19.07A32.72,32.72,0,0,1,157.62,99c-2.11,1.31-2.46,2.23-1.06,4.12,4.71,6.38,5.81,13.58,5.79,21.3,0,9.19-2.48,17.45-8.06,24.7-6,7.77-7,9.36-16.76,10.85-5.53.85-7.59,2.1-12.12-1.51,1,1.15-1.47-1.13-8.71-8.71-3.85-5.36-6.06-5.3-13.26-10.23-8-5.68-16.35-8.19-20.8-15.73-.57,0-.61.4-.56.69.77,4.64,2.39,8.71,6.12,12,4.83,4.28,10,8,15.11,12,7.66,6,10,14.14,9.17,23.56-.49,5.59-2.6,10.63-4.68,15.7a2.18,2.18,0,0,0,.61,2.8,38.13,38.13,0,0,0,21.83,10.76,16.76,16.76,0,0,1,6.63,2.66,3.55,3.55,0,0,1,1.36,4.36c-.7,2.2-1.87,3.16-4.08,3.27a55.67,55.67,0,0,1-11.67-1c-8.28-1.31-16.54-2.83-25-2.37-7.17.38-14.3,1.16-21.44,1.91-5.2.55-10.41,1-15.62,1.47-7,.67-14,1.38-21.08,2-7.54.67-15.07,1.41-22.62,1.81-5.45.29-9.82-3.12-11.8-8.64-.55-1.54-1-3.11-1.54-4.66A3.08,3.08,0,0,0,1.83,200C.09,199.32,0,198,0,196.47c.2-11.83,3.58-22.42,11-31.92,9.22-11.84,17.7-24.25,25.85-36.86,2.13-3.28,3.45-7,4.9-10.64a2.93,2.93,0,0,0-1-3.55c-.15-.13-.31-.23-.46-.35q-8.45-6.86-1.2-15.13c4.15-4.76,8.39-9.43,12.35-14.34A23.51,23.51,0,0,0,56.8,66.05c-.27-2.68-1.31-3.79-4-4.17a13.79,13.79,0,0,1-6.05-2c-1.59-1.07-2.68-3.07-2.1-4.87.9-2.78.8-5.6.81-8.43,0-1.26.15-2.52.22-3.77.18-3.26,1.31-5.57,4.86-6.19,1.5-.26,1.84-1.23,1.07-2.68-1-1.87-.9-1.91,1.18-2.16,1.56-.19,2-1.24,2.12-2.65C55.09,26.4,54.28,23.77,54,20.66Zm69.85-13.3a4.36,4.36,0,0,0-3.2,1.5c-2,2.11-4,4.24-6,6.31-2.83,2.9-2.79,2.85-.49,6.07,3.24,4.52,4.7,9.47,3.11,15-1.33,4.64-4.57,7.76-8.59,10.12-3.62,2.12-7,4.38-9.43,8A14.51,14.51,0,0,1,93.71,59c-4.52,2.37-9.46,3.46-14.31,4.81a2.35,2.35,0,0,0-2.09,2.56c-.2,5.28,2,9.39,5.88,12.72,2.11,1.8,2.49,1.87,4.26-.27a97.79,97.79,0,0,0,7.76-10C104,54.9,116.46,45.26,130.59,37.43c2.6-1.44,3.26-2.72,2.24-5.56s-2.21-5.62-3.33-8.43c-1.68-4.24-2.38-8.74-3.46-13.14C125.71,9,125.4,7.55,123.87,7.36ZM17.15,175.44c0,.73,0,1.29,0,1.86.06,1.93.15,2,2,1.12,1.65-.79,3.28-1.62,4.95-2.36,10.62-4.67,21.19-9.43,31.93-13.83,4.41-1.81,5.15-3.59,3.38-7.95-2.41-5.9-6.48-10.79-9.84-16.11-.65-1-1.17-.52-1.75.13q-3,3.39-6.12,6.71c-7.59,8.18-15.17,16.37-22.57,24.72A6.93,6.93,0,0,0,17.15,175.44Z"/></g></g></svg>