<svg xmlns="http://www.w3.org/2000/svg" viewBox="0 0 255 271.14"><title>资源 5851x</title><g id="图层_2" data-name="图层 2"><g id="图层_12" data-name="图层 12"><path d="M0,22.09a1.32,1.32,0,0,0,.15-.29C1,18.8,2.84,18,6.56,19.31a13.26,13.26,0,0,1,5.79,4.48c4.18,5.31,8.19,10.73,12,16.34q4.68,7,9.12,14.2c.19.31.43.59.6.91.38.68.83.93,1.59.49a3.54,3.54,0,0,1,1.91-.33A1.73,1.73,0,0,1,39.42,57a1.53,1.53,0,0,0,.79,1.21,12.75,12.75,0,0,1,3.86,3.63A7,7,0,0,0,50.87,65c1.05-.12,2.11,0,3.16-.11.63,0,1.32-.17,1.52-.85.55-1.82,2.12-2.62,3.48-3.59,3.2-2.27,6.44-4.47,9.66-6.71.9-.63.89-.8-.09-1.28-3.71-1.83-7.35-3.84-11.17-5.42-4.09-1.71-5.62-5-5.78-8.93a77.28,77.28,0,0,1,1.27-18.53,22,22,0,0,1,5.4-11.24A25,25,0,0,1,67.2,2.58,37.28,37.28,0,0,1,90.71,1.31a22.8,22.8,0,0,1,14.79,11,33.65,33.65,0,0,1,2.83,7.4c.28.94.56,1.89.9,2.8A5.06,5.06,0,0,0,113.62,26a21.09,21.09,0,0,1,10.3,4.64c.27.21.7.4.65.81s-.61.42-.95.58c-4.26,2-8.73,1.48-13.18,1.08-1.14-.1-1.33.3-1.23,1.23.17,1.45.3,2.89.48,4.33a7.87,7.87,0,0,1-1.66,6c-1,1.24-1,1.27.5,2a21.37,21.37,0,0,1,4.84,3.49c1.65,1.48,3.28,3,4.94,4.43a3.8,3.8,0,0,1,1.16,4.43c-.25.76-.58,1.49-.9,2.22-.71,1.58-.67,2.63.6,3.75,2.54,2.25,2.92,4.91,2,8-.71,2.51-1.25,5.07-1.93,7.6A7.56,7.56,0,0,0,121,88q7,8,14.09,16a17.21,17.21,0,0,0,1.55,1.53,3.58,3.58,0,0,0,3.21,1,51,51,0,0,1,7.7-.54c6.49-.32,13-.51,19.48-.78,7-.29,14-.72,21-.63a8.4,8.4,0,0,1,6.89,3.74,55.38,55.38,0,0,1,3.45,5.8,43.67,43.67,0,0,0,7,9,137.69,137.69,0,0,1,9.65,11.65,33.54,33.54,0,0,0,3.49,4c3.4,3.14,3.69,6.78,2,10.82-.35.8-.64,1.63-1,2.43a1,1,0,0,0,.26,1.26c1.25,1.15,2.45,2.36,3.71,3.52a1.86,1.86,0,0,0,2.8-.07c.82-.76,1.61-1.57,2.48-2.28a2.91,2.91,0,0,1,4.54.59,28.33,28.33,0,0,0,10.45,9,11,11,0,0,0,4.48,1.21,9.32,9.32,0,0,1,5.54,1.69,2.93,2.93,0,0,1,1.2,2.43c.05,3.69-1.44,5.68-5,6.68-2,.58-4.12.87-6.19,1.27a1.81,1.81,0,0,0-1.57,1.13,1.31,1.31,0,0,1-2.25.34c-2.46-3.06-6-3.08-9.39-3.47a32.61,32.61,0,0,0-7.39,0c-.81.09-1.42.28-1.39,1.27,0,.56,0,1.13-.75,1.28a1.64,1.64,0,0,1-1.86-.53c-.11-.15-.22-.3-.33-.43a2.33,2.33,0,0,0-3.81.09c-1.1,1.39-2.21,1.43-3.42.15a8.29,8.29,0,0,0-3-1.73,4.55,4.55,0,0,1-3-3.7,22.17,22.17,0,0,1,.86-11.57c.25-.76.17-1-.56-1.39a25.07,25.07,0,0,1-9.88-8.48,42.79,42.79,0,0,0-12.61-12.14,4.39,4.39,0,0,0-1.89-.8,2.72,2.72,0,0,1-2.21-1.69,7.24,7.24,0,0,0-3.68-3.69c-2.85-1.12-5.31-.12-7.71,1.38q-5.89,3.69-11.83,7.33a14.1,14.1,0,0,1-5.31,1.89c-6.23,1-11.07,4.3-15.38,8.64a35.08,35.08,0,0,0-6.74,10.2c-2.66,5.68-5.55,11.26-8.35,16.88Q117.22,184.64,114,191q-4.18,8.31-8.39,16.61-1.39,2.77-2.8,5.54a6.88,6.88,0,0,0-.77,3.15c.06,4.46-1.24,8.68-2.22,12.95-.58,2.55-1.33,5.05-2,7.57s-1.91,3.48-4.48,3.67c-.83.05-1.67.08-2.5.2-1.18.17-1.8,1.2-1,2,1.88,2,1.5,4.34,1.46,6.67,0,1.16-.11,2.32-.16,3.48a1.52,1.52,0,0,1-1.41,1.65c-.88.08-1,.56-1.06,1.31-.2,3.07,0,6.17-.58,9.23-.39,2-1.2,3.57-3.4,4a1.42,1.42,0,0,0-.89.74c-.8,1.29-1.73,1.56-2.84.55s-1.45-.69-1.94.35a2.24,2.24,0,0,1-.34.42H76.48a7.58,7.58,0,0,1-.92-.76c-.64-.7-1.21-.92-2-.16-.5.47-2.11.22-2.35-.41-.51-1.28-1.67-1.89-2.52-2.8a4.5,4.5,0,0,1-1.19-4.31,9.9,9.9,0,0,1,1.44-3.15c1.41-2.22,2.08-4.49,1-7.1a2.31,2.31,0,0,1,1.28-3.28,5.52,5.52,0,0,0,2.8-3.3,15.27,15.27,0,0,1,2.76-4.53c.92-1.12.93-1.13-.12-2.21a4.67,4.67,0,0,1-.72-.95c-1.15-2.1-2.23-4.24-3.43-6.32a3.55,3.55,0,0,1,.39-4.41c.28-.34.53-.7.84-1,1.93-1.92,3.57-4,3.7-6.89,0-1.11.36-2.22.52-3.33a174.43,174.43,0,0,1,5.93-26.53c1-3.26,2.39-6.41,3.15-9.73,2.25-9.77,2.12-19.66,1.35-29.57a1.33,1.33,0,0,0-1-1.31c-1.24-.29-1.59-1.21-1.88-2.27a83,83,0,0,0-3.13-9.74c-1.56-3.83-3.49-7.49-5-11.34-1.77-4.46-3.13-9-4.79-13.55a11.87,11.87,0,0,0-3.17-4.88c-.19-.16-.37-.4-.66-.25s-.18.43-.16.68a17.79,17.79,0,0,1,.19,3.79,19.18,19.18,0,0,1-1.89,5.2C64,123,57.09,122,53.8,118.65s-6.6-7.23-9.84-10.91a12.77,12.77,0,0,1-3.4-6.81A32,32,0,0,1,40.29,97a105.67,105.67,0,0,0-.46-12.83c-.22-1.8-.56-3.59-2.47-4.42a13.05,13.05,0,0,1-2.65-1.68,43.56,43.56,0,0,0-4.1-3,2.39,2.39,0,0,1-1.26-2.37c0-.47,0-.94,0-1.41a3.41,3.41,0,0,0-2.23-3.51c-.56-.26-1.16-.44-1.7-.72A2.58,2.58,0,0,1,24,64.73c0-1,.67-1.46,1.47-1.81,1.19-.53,2.38-1.07,3.58-1.58.55-.24.78-.49.26-1-2.39-2.43-4.62-5-7.15-7.31-4.75-4.32-9.68-8.44-13.77-13.45C5.11,35.51,1.84,31.45,0,26.45Z"/></g></g></svg>